<svg width="539" height="221" viewBox="0 0 539 221" fill="none" xmlns="http://www.w3.org/2000/svg">
<path d="M4.76 78V29.04H24.344C27.8347 29.04 30.6567 29.7427 32.81 31.148C34.9633 32.5307 36.5387 34.276 37.536 36.384C38.5333 38.492 39.032 40.6227 39.032 42.776C39.032 45.5187 38.4087 47.7967 37.162 49.61C35.938 51.4233 34.2493 52.636 32.096 53.248V51.548C35.156 52.1827 37.4453 53.5993 38.964 55.798C40.5053 57.9967 41.276 60.456 41.276 63.176C41.276 66.1 40.732 68.6727 39.644 70.894C38.5787 73.1153 36.9467 74.8607 34.748 76.13C32.5493 77.3767 29.784 78 26.452 78H4.76ZM14.144 69.296H25.5C26.7467 69.296 27.8573 69.0353 28.832 68.514C29.8067 67.97 30.566 67.222 31.11 66.27C31.6767 65.2953 31.96 64.1507 31.96 62.836C31.96 61.68 31.722 60.6487 31.246 59.742C30.77 58.8353 30.0447 58.1213 29.07 57.6C28.118 57.056 26.928 56.784 25.5 56.784H14.144V69.296ZM14.144 48.148H24.208C25.2507 48.148 26.18 47.9667 26.996 47.604C27.812 47.2413 28.458 46.686 28.934 45.938C29.41 45.1673 29.648 44.1813 29.648 42.98C29.648 41.484 29.1833 40.226 28.254 39.206C27.3247 38.186 25.976 37.676 24.208 37.676H14.144V48.148ZM64.2409 79.02C60.4329 79.02 57.1689 78.17 54.4489 76.47C51.7289 74.77 49.6435 72.458 48.1929 69.534C46.7422 66.61 46.0169 63.312 46.0169 59.64C46.0169 55.9227 46.7649 52.602 48.2609 49.678C49.7795 46.754 51.9102 44.4533 54.6529 42.776C57.3955 41.0987 60.6369 40.26 64.3769 40.26C68.7062 40.26 72.3329 41.3593 75.2569 43.558C78.2035 45.734 80.0849 48.7147 80.9009 52.5L71.6529 54.948C71.1089 53.044 70.1569 51.5593 68.7969 50.494C67.4595 49.4287 65.9409 48.896 64.2409 48.896C62.2915 48.896 60.6935 49.372 59.4469 50.324C58.2002 51.2533 57.2822 52.534 56.6929 54.166C56.1035 55.7753 55.8089 57.6 55.8089 59.64C55.8089 62.836 56.5115 65.4313 57.9169 67.426C59.3449 69.398 61.4529 70.384 64.2409 70.384C66.3262 70.384 67.9129 69.908 69.0009 68.956C70.0889 68.004 70.9049 66.644 71.4489 64.876L80.9009 66.848C79.8582 70.7467 77.8862 73.75 74.9849 75.858C72.0835 77.966 68.5022 79.02 64.2409 79.02ZM104.769 79.02C101.007 79.02 97.6861 78.2153 94.8074 76.606C91.9514 74.974 89.7074 72.7413 88.0754 69.908C86.4661 67.052 85.6614 63.788 85.6614 60.116C85.6614 56.104 86.4547 52.6133 88.0414 49.644C89.6281 46.6747 91.8154 44.374 94.6034 42.742C97.3914 41.0873 100.599 40.26 104.225 40.26C108.079 40.26 111.354 41.1667 114.051 42.98C116.749 44.7933 118.743 47.3433 120.035 50.63C121.327 53.9167 121.781 57.7813 121.395 62.224H112.249V58.824C112.249 55.084 111.649 52.398 110.447 50.766C109.269 49.1113 107.331 48.284 104.633 48.284C101.483 48.284 99.1594 49.2473 97.6634 51.174C96.1901 53.078 95.4534 55.9 95.4534 59.64C95.4534 63.0627 96.1901 65.7147 97.6634 67.596C99.1594 69.4547 101.347 70.384 104.225 70.384C106.039 70.384 107.591 69.9873 108.883 69.194C110.175 68.4007 111.161 67.256 111.841 65.76L121.089 68.412C119.707 71.7667 117.519 74.3733 114.527 76.232C111.558 78.0907 108.305 79.02 104.769 79.02ZM92.5974 62.224V55.356H116.941V62.224H92.5974ZM127.064 87.18L127.608 83.304C128.696 83.3947 129.58 83.2133 130.26 82.76C130.94 82.3293 131.405 81.6947 131.654 80.856C131.926 80.04 131.983 79.088 131.824 78H127.064V68.752H136.312V78C136.312 81.264 135.553 83.7347 134.034 85.412C132.516 87.0893 130.192 87.6787 127.064 87.18ZM183.885 78V66.1C182.593 66.7347 181.165 67.222 179.601 67.562C178.06 67.902 176.451 68.072 174.773 68.072C170.965 68.072 167.939 67.2107 165.695 65.488C163.474 63.7653 162.035 61.272 161.377 58.008C161.196 57.0787 161.06 56.1153 160.969 55.118C160.901 54.1207 160.856 53.214 160.833 52.398C160.833 51.5593 160.833 50.9133 160.833 50.46V41.28H170.217V50.46C170.217 50.8907 170.24 51.5933 170.285 52.568C170.331 53.52 170.467 54.472 170.693 55.424C171.101 57.0107 171.793 58.1553 172.767 58.858C173.765 59.5607 175.181 59.912 177.017 59.912C178.581 59.912 179.919 59.708 181.029 59.3C182.163 58.8693 183.115 58.348 183.885 57.736V41.28H193.201V78H183.885ZM211.693 78V49.44H199.657V41.28H232.977V49.44H220.941V78H211.693ZM255.3 79.02C251.605 79.02 248.364 78.1927 245.576 76.538C242.788 74.8833 240.612 72.6053 239.048 69.704C237.506 66.78 236.736 63.4253 236.736 59.64C236.736 55.8093 237.529 52.4433 239.116 49.542C240.702 46.618 242.89 44.34 245.678 42.708C248.466 41.076 251.673 40.26 255.3 40.26C258.994 40.26 262.236 41.0873 265.024 42.742C267.834 44.3967 270.022 46.686 271.586 49.61C273.15 52.5113 273.932 55.8547 273.932 59.64C273.932 63.448 273.138 66.814 271.552 69.738C269.988 72.6393 267.8 74.9173 264.99 76.572C262.202 78.204 258.972 79.02 255.3 79.02ZM255.3 70.384C258.269 70.384 260.479 69.3867 261.93 67.392C263.403 65.3747 264.14 62.7907 264.14 59.64C264.14 56.376 263.392 53.7693 261.896 51.82C260.422 49.8707 258.224 48.896 255.3 48.896C253.282 48.896 251.628 49.3493 250.336 50.256C249.044 51.1627 248.08 52.4207 247.446 54.03C246.834 55.6393 246.528 57.5093 246.528 59.64C246.528 62.9267 247.264 65.5447 248.738 67.494C250.234 69.4207 252.421 70.384 255.3 70.384ZM303.998 78V49.44H291.962V41.28H325.282V49.44H313.246V78H303.998ZM348.812 79.02C345.05 79.02 341.729 78.2153 338.85 76.606C335.994 74.974 333.75 72.7413 332.118 69.908C330.509 67.052 329.704 63.788 329.704 60.116C329.704 56.104 330.498 52.6133 332.084 49.644C333.671 46.6747 335.858 44.374 338.646 42.742C341.434 41.0873 344.642 40.26 348.268 40.26C352.122 40.26 355.397 41.1667 358.094 42.98C360.792 44.7933 362.786 47.3433 364.078 50.63C365.37 53.9167 365.824 57.7813 365.438 62.224H356.292V58.824C356.292 55.084 355.692 52.398 354.49 50.766C353.312 49.1113 351.374 48.284 348.676 48.284C345.526 48.284 343.202 49.2473 341.706 51.174C340.233 53.078 339.496 55.9 339.496 59.64C339.496 63.0627 340.233 65.7147 341.706 67.596C343.202 69.4547 345.39 70.384 348.268 70.384C350.082 70.384 351.634 69.9873 352.926 69.194C354.218 68.4007 355.204 67.256 355.884 65.76L365.132 68.412C363.75 71.7667 361.562 74.3733 358.57 76.232C355.601 78.0907 352.348 79.02 348.812 79.02ZM336.64 62.224V55.356H360.984V62.224H336.64ZM388.585 79.088C385.049 79.0427 382.057 78.2607 379.609 76.742C377.161 75.2007 375.235 73.0813 373.829 70.384C372.447 67.664 371.585 64.5133 371.245 60.932C371.064 59.0053 371.019 56.8407 371.109 54.438C371.223 52.0127 371.483 49.6327 371.891 47.298C372.299 44.9633 372.877 42.9573 373.625 41.28C374.351 39.716 375.28 38.288 376.413 36.996C377.569 35.6813 378.793 34.5707 380.085 33.664C381.604 32.5987 383.236 31.7827 384.981 31.216C386.727 30.6267 388.563 30.1733 390.489 29.856C392.416 29.5387 394.411 29.2553 396.473 29.006C398.559 28.7567 400.667 28.428 402.797 28.02L403.613 36.18C402.321 36.52 400.848 36.7693 399.193 36.928C397.539 37.0867 395.839 37.2567 394.093 37.438C392.348 37.5967 390.682 37.8573 389.095 38.22C387.509 38.5827 386.137 39.1267 384.981 39.852C383.417 40.8267 382.216 42.1867 381.377 43.932C380.561 45.6547 380.085 47.4 379.949 49.168C381.355 47.128 383.066 45.7227 385.083 44.952C387.123 44.1813 389.129 43.796 391.101 43.796C394.343 43.796 397.119 44.578 399.431 46.142C401.766 47.6833 403.557 49.7687 404.803 52.398C406.05 55.0047 406.673 57.8947 406.673 61.068C406.673 64.672 405.891 67.834 404.327 70.554C402.786 73.274 400.655 75.3933 397.935 76.912C395.215 78.408 392.099 79.1333 388.585 79.088ZM388.993 70.452C391.623 70.452 393.606 69.636 394.943 68.004C396.281 66.372 396.949 64.196 396.949 61.476C396.949 58.688 396.258 56.5007 394.875 54.914C393.515 53.3047 391.555 52.5 388.993 52.5C386.387 52.5 384.403 53.3047 383.043 54.914C381.706 56.5007 381.037 58.688 381.037 61.476C381.037 64.3547 381.729 66.576 383.111 68.14C384.494 69.6813 386.455 70.452 388.993 70.452ZM431.223 79.02C427.46 79.02 424.139 78.2153 421.261 76.606C418.405 74.974 416.161 72.7413 414.529 69.908C412.919 67.052 412.115 63.788 412.115 60.116C412.115 56.104 412.908 52.6133 414.495 49.644C416.081 46.6747 418.269 44.374 421.057 42.742C423.845 41.0873 427.052 40.26 430.679 40.26C434.532 40.26 437.807 41.1667 440.505 42.98C443.202 44.7933 445.197 47.3433 446.489 50.63C447.781 53.9167 448.234 57.7813 447.849 62.224H438.703V58.824C438.703 55.084 438.102 52.398 436.901 50.766C435.722 49.1113 433.784 48.284 431.087 48.284C427.936 48.284 425.613 49.2473 424.117 51.174C422.643 53.078 421.907 55.9 421.907 59.64C421.907 63.0627 422.643 65.7147 424.117 67.596C425.613 69.4547 427.8 70.384 430.679 70.384C432.492 70.384 434.045 69.9873 435.337 69.194C436.629 68.4007 437.615 67.256 438.295 65.76L447.543 68.412C446.16 71.7667 443.973 74.3733 440.981 76.232C438.011 78.0907 434.759 79.02 431.223 79.02ZM419.051 62.224V55.356H443.395V62.224H419.051Z" fill="white"/>
<path d="M4.692 144V107.28H13.94V121.288H29.036V107.28H38.284V144H29.036V129.924H13.94V144H4.692ZM52.4833 160.32L59.5553 140.872L59.6913 146.584L43.7113 107.28H53.2993L64.0433 135.092H61.8673L72.5433 107.28H81.7913L61.0513 160.32H52.4833ZM82.4925 144L95.2765 125.64L83.3765 107.28H93.4405L104.525 124.96V107.28H112.685V124.96L123.769 107.28H133.833L121.933 125.64L134.717 144H124.041L112.685 126.32V144H104.525V126.32L93.1685 144H82.4925ZM140.094 144V107.28H149.342V121.288H164.438V107.28H173.686V144H164.438V129.924H149.342V144H140.094ZM199.718 145.02C196.023 145.02 192.782 144.193 189.994 142.538C187.206 140.883 185.03 138.605 183.466 135.704C181.924 132.78 181.154 129.425 181.154 125.64C181.154 121.809 181.947 118.443 183.534 115.542C185.12 112.618 187.308 110.34 190.096 108.708C192.884 107.076 196.091 106.26 199.718 106.26C203.412 106.26 206.654 107.087 209.442 108.742C212.252 110.397 214.44 112.686 216.004 115.61C217.568 118.511 218.35 121.855 218.35 125.64C218.35 129.448 217.556 132.814 215.97 135.738C214.406 138.639 212.218 140.917 209.408 142.572C206.62 144.204 203.39 145.02 199.718 145.02ZM199.718 136.384C202.687 136.384 204.897 135.387 206.348 133.392C207.821 131.375 208.558 128.791 208.558 125.64C208.558 122.376 207.81 119.769 206.314 117.82C204.84 115.871 202.642 114.896 199.718 114.896C197.7 114.896 196.046 115.349 194.754 116.256C193.462 117.163 192.498 118.421 191.864 120.03C191.252 121.639 190.946 123.509 190.946 125.64C190.946 128.927 191.682 131.545 193.156 133.494C194.652 135.421 196.839 136.384 199.718 136.384Z" fill="white"/>
<path d="M4.76 210V161.04H24.344C27.8347 161.04 30.6567 161.743 32.81 163.148C34.9633 164.531 36.5387 166.276 37.536 168.384C38.5333 170.492 39.032 172.623 39.032 174.776C39.032 177.519 38.4087 179.797 37.162 181.61C35.938 183.423 34.2493 184.636 32.096 185.248V183.548C35.156 184.183 37.4453 185.599 38.964 187.798C40.5053 189.997 41.276 192.456 41.276 195.176C41.276 198.1 40.732 200.673 39.644 202.894C38.5787 205.115 36.9467 206.861 34.748 208.13C32.5493 209.377 29.784 210 26.452 210H4.76ZM14.144 201.296H25.5C26.7467 201.296 27.8573 201.035 28.832 200.514C29.8067 199.97 30.566 199.222 31.11 198.27C31.6767 197.295 31.96 196.151 31.96 194.836C31.96 193.68 31.722 192.649 31.246 191.742C30.77 190.835 30.0447 190.121 29.07 189.6C28.118 189.056 26.928 188.784 25.5 188.784H14.144V201.296ZM14.144 180.148H24.208C25.2507 180.148 26.18 179.967 26.996 179.604C27.812 179.241 28.458 178.686 28.934 177.938C29.41 177.167 29.648 176.181 29.648 174.98C29.648 173.484 29.1833 172.226 28.254 171.206C27.3247 170.186 25.976 169.676 24.208 169.676H14.144V180.148ZM78.1942 211.02C74.4995 211.02 71.2582 210.193 68.4702 208.538C65.6822 206.883 63.5062 204.605 61.9422 201.704C60.4008 198.78 59.6302 195.425 59.6302 191.64C59.6302 187.809 60.4235 184.443 62.0102 181.542C63.5968 178.618 65.7842 176.34 68.5722 174.708C71.3602 173.076 74.5675 172.26 78.1942 172.26C81.8888 172.26 85.1302 173.087 87.9182 174.742C90.7288 176.397 92.9162 178.686 94.4802 181.61C96.0442 184.511 96.8262 187.855 96.8262 191.64C96.8262 195.448 96.0328 198.814 94.4462 201.738C92.8822 204.639 90.6948 206.917 87.8842 208.572C85.0962 210.204 81.8662 211.02 78.1942 211.02ZM78.1942 202.384C81.1635 202.384 83.3735 201.387 84.8242 199.392C86.2975 197.375 87.0342 194.791 87.0342 191.64C87.0342 188.376 86.2862 185.769 84.7902 183.82C83.3168 181.871 81.1182 180.896 78.1942 180.896C76.1768 180.896 74.5222 181.349 73.2302 182.256C71.9382 183.163 70.9748 184.421 70.3402 186.03C69.7282 187.639 69.4222 189.509 69.4222 191.64C69.4222 194.927 70.1588 197.545 71.6322 199.494C73.1282 201.421 75.3155 202.384 78.1942 202.384ZM101.583 218.16V202.86C103.532 202.86 104.915 202.18 105.731 200.82C106.57 199.46 107.227 197.035 107.703 193.544C107.975 191.527 108.202 189.407 108.383 187.186C108.587 184.965 108.757 182.687 108.893 180.352C109.029 178.017 109.154 175.66 109.267 173.28H137.623V202.86H141.363V218.16H132.659V210H110.287V218.16H101.583ZM113.415 202.86H128.375V180.42H117.291C117.223 181.667 117.144 182.913 117.053 184.16C116.985 185.407 116.894 186.642 116.781 187.866C116.69 189.09 116.6 190.28 116.509 191.436C116.418 192.569 116.316 193.657 116.203 194.7C115.999 196.695 115.716 198.315 115.353 199.562C114.99 200.809 114.344 201.908 113.415 202.86ZM148.063 210V173.28H157.311V187.288H172.407V173.28H181.655V210H172.407V195.924H157.311V210H148.063ZM207.686 211.02C203.992 211.02 200.75 210.193 197.962 208.538C195.174 206.883 192.998 204.605 191.434 201.704C189.893 198.78 189.122 195.425 189.122 191.64C189.122 187.809 189.916 184.443 191.502 181.542C193.089 178.618 195.276 176.34 198.064 174.708C200.852 173.076 204.06 172.26 207.686 172.26C211.381 172.26 214.622 173.087 217.41 174.742C220.221 176.397 222.408 178.686 223.972 181.61C225.536 184.511 226.318 187.855 226.318 191.64C226.318 195.448 225.525 198.814 223.938 201.738C222.374 204.639 220.187 206.917 217.376 208.572C214.588 210.204 211.358 211.02 207.686 211.02ZM207.686 202.384C210.656 202.384 212.866 201.387 214.316 199.392C215.79 197.375 216.526 194.791 216.526 191.64C216.526 188.376 215.778 185.769 214.282 183.82C212.809 181.871 210.61 180.896 207.686 180.896C205.669 180.896 204.014 181.349 202.722 182.256C201.43 183.163 200.467 184.421 199.832 186.03C199.22 187.639 198.914 189.509 198.914 191.64C198.914 194.927 199.651 197.545 201.124 199.494C202.62 201.421 204.808 202.384 207.686 202.384ZM251.339 169.2C249.344 169.2 247.531 168.713 245.899 167.738C244.267 166.763 242.964 165.46 241.989 163.828C241.014 162.196 240.527 160.383 240.527 158.388H247.667C247.667 159.408 248.018 160.281 248.721 161.006C249.446 161.709 250.319 162.06 251.339 162.06C252.359 162.06 253.22 161.709 253.923 161.006C254.648 160.281 255.011 159.408 255.011 158.388H262.151C262.151 160.383 261.664 162.196 260.689 163.828C259.714 165.46 258.411 166.763 256.779 167.738C255.147 168.713 253.334 169.2 251.339 169.2ZM266.503 173.28V210H257.663V187.56L241.071 210H233.727V173.28H242.567V194.972L259.227 173.28H266.503ZM305.827 211.02C302.019 211.02 298.755 210.17 296.035 208.47C293.315 206.77 291.229 204.458 289.779 201.534C288.328 198.61 287.603 195.312 287.603 191.64C287.603 187.923 288.351 184.602 289.847 181.678C291.365 178.754 293.496 176.453 296.239 174.776C298.981 173.099 302.223 172.26 305.963 172.26C310.292 172.26 313.919 173.359 316.843 175.558C319.789 177.734 321.671 180.715 322.487 184.5L313.239 186.948C312.695 185.044 311.743 183.559 310.383 182.494C309.045 181.429 307.527 180.896 305.827 180.896C303.877 180.896 302.279 181.372 301.033 182.324C299.786 183.253 298.868 184.534 298.279 186.166C297.689 187.775 297.395 189.6 297.395 191.64C297.395 194.836 298.097 197.431 299.503 199.426C300.931 201.398 303.039 202.384 305.827 202.384C307.912 202.384 309.499 201.908 310.587 200.956C311.675 200.004 312.491 198.644 313.035 196.876L322.487 198.848C321.444 202.747 319.472 205.75 316.571 207.858C313.669 209.966 310.088 211.02 305.827 211.02ZM344.475 211.02C340.667 211.02 337.403 210.17 334.683 208.47C331.963 206.77 329.878 204.458 328.427 201.534C326.977 198.61 326.251 195.312 326.251 191.64C326.251 187.923 326.999 184.602 328.495 181.678C330.014 178.754 332.145 176.453 334.887 174.776C337.63 173.099 340.871 172.26 344.611 172.26C348.941 172.26 352.567 173.359 355.491 175.558C358.438 177.734 360.319 180.715 361.135 184.5L351.887 186.948C351.343 185.044 350.391 183.559 349.031 182.494C347.694 181.429 346.175 180.896 344.475 180.896C342.526 180.896 340.928 181.372 339.681 182.324C338.435 183.253 337.517 184.534 336.927 186.166C336.338 187.775 336.043 189.6 336.043 191.64C336.043 194.836 336.746 197.431 338.151 199.426C339.579 201.398 341.687 202.384 344.475 202.384C346.561 202.384 348.147 201.908 349.235 200.956C350.323 200.004 351.139 198.644 351.683 196.876L361.135 198.848C360.093 202.747 358.121 205.75 355.219 207.858C352.318 209.966 348.737 211.02 344.475 211.02ZM367.868 210V173.28H377.116V184.976H380.448C381.468 184.976 382.658 184.999 384.018 185.044C385.378 185.089 386.5 185.203 387.384 185.384C389.537 185.86 391.35 186.619 392.824 187.662C394.297 188.705 395.408 190.053 396.156 191.708C396.926 193.34 397.312 195.289 397.312 197.556C397.312 200.82 396.462 203.449 394.762 205.444C393.084 207.416 390.648 208.776 387.452 209.524C386.568 209.728 385.434 209.864 384.052 209.932C382.669 209.977 381.468 210 380.448 210H367.868ZM377.116 202.86H381.468C381.876 202.86 382.329 202.837 382.828 202.792C383.326 202.747 383.825 202.656 384.324 202.52C385.276 202.248 386.114 201.647 386.84 200.718C387.565 199.789 387.928 198.735 387.928 197.556C387.928 196.264 387.554 195.165 386.806 194.258C386.058 193.329 385.185 192.728 384.188 192.456C383.712 192.32 383.236 192.229 382.76 192.184C382.284 192.139 381.853 192.116 381.468 192.116H377.116V202.86ZM400.984 210V173.28H410.232V210H400.984ZM416.333 210V202.316C417.67 202.565 418.701 202.554 419.427 202.282C420.152 201.987 420.696 201.421 421.059 200.582C421.444 199.721 421.773 198.553 422.045 197.08C422.407 195.131 422.725 192.853 422.997 190.246C423.291 187.639 423.541 184.885 423.745 181.984C423.949 179.06 424.13 176.159 424.289 173.28H452.033V210H442.785V181.916H432.381C432.29 183.095 432.165 184.5 432.007 186.132C431.871 187.764 431.712 189.464 431.531 191.232C431.372 192.977 431.191 194.655 430.987 196.264C430.783 197.851 430.567 199.211 430.341 200.344C429.797 203.223 428.992 205.489 427.927 207.144C426.861 208.799 425.399 209.853 423.541 210.306C421.682 210.782 419.279 210.68 416.333 210ZM461.501 210L461.569 173.28H470.953V190.96L483.397 173.28H494.821L481.561 191.64L495.705 210H483.669L470.953 192.32V210H461.501ZM514.828 211.02C511.065 211.02 507.745 210.215 504.866 208.606C502.01 206.974 499.766 204.741 498.134 201.908C496.525 199.052 495.72 195.788 495.72 192.116C495.72 188.104 496.513 184.613 498.1 181.644C499.687 178.675 501.874 176.374 504.662 174.742C507.45 173.087 510.657 172.26 514.284 172.26C518.137 172.26 521.413 173.167 524.11 174.98C526.807 176.793 528.802 179.343 530.094 182.63C531.386 185.917 531.839 189.781 531.454 194.224H522.308V190.824C522.308 187.084 521.707 184.398 520.506 182.766C519.327 181.111 517.389 180.284 514.692 180.284C511.541 180.284 509.218 181.247 507.722 183.174C506.249 185.078 505.512 187.9 505.512 191.64C505.512 195.063 506.249 197.715 507.722 199.596C509.218 201.455 511.405 202.384 514.284 202.384C516.097 202.384 517.65 201.987 518.942 201.194C520.234 200.401 521.22 199.256 521.9 197.76L531.148 200.412C529.765 203.767 527.578 206.373 524.586 208.232C521.617 210.091 518.364 211.02 514.828 211.02ZM502.656 194.224V187.356H527V194.224H502.656Z" fill="white"/>
<path fill-rule="evenodd" clip-rule="evenodd" d="M516.014 25.358C515.993 24.9158 515.997 24.4853 516.018 24.0812C516.09 22.8659 517.226 22.87 517.314 22.8717C517.5 22.8759 518.324 22.9278 518.522 23.8753C518.535 23.9318 518.564 24.341 518.573 24.4987C518.589 24.835 518.598 25.1656 518.552 25.4973C518.594 26.06 518.686 26.639 518.863 27.1837C519.12 27.9878 519.536 28.7299 520.289 29.1253C521.636 29.8365 523.407 29.8076 524.888 29.9883C525.507 30.0636 525.978 30.5765 525.999 31.1957C526.016 31.8153 525.579 32.3558 524.964 32.4683C523.113 32.8089 520.984 34.4827 519.629 35.8306C519.212 36.2448 518.745 37.2313 518.223 37.863C517.803 38.3692 517.335 38.7085 516.894 38.8432C516.721 38.8955 515.766 39.0863 515.337 38.1031C515.219 37.827 514.802 36.3812 514.764 36.2164C514.537 35.2717 514.213 34.4279 513.578 33.6765C513.027 33.0251 512.358 32.4562 511.554 32.1408C511.23 32.0136 510.893 31.9169 510.557 31.8174C510.439 31.8031 510.106 31.7613 509.989 31.7216C509.749 31.6421 509.572 31.5174 509.446 31.3932C509.206 31.1581 509.084 30.8773 509.063 30.5577C509.046 30.3469 509.075 30.0967 509.227 29.8193C509.341 29.6223 509.597 29.3257 510.06 29.1332C510.544 28.932 511.583 28.7408 511.768 28.691C513.056 28.3463 514.318 27.8221 515.307 26.9134C515.8 26.4591 515.913 25.9692 516.014 25.358ZM516.839 28.9157C517.335 29.939 518.076 30.8004 519.107 31.343C519.532 31.5685 519.995 31.7396 520.474 31.8726C519.486 32.557 518.568 33.3352 517.84 34.0564C517.605 34.2911 517.348 34.671 517.075 35.0881C516.755 33.9744 516.283 32.9741 515.509 32.0588C515.051 31.5191 514.533 31.0258 513.957 30.6146C515 30.2038 515.989 29.6541 516.839 28.9157Z" fill="white"/>
<path fill-rule="evenodd" clip-rule="evenodd" d="M489.711 60.9059C499.289 61.136 509.076 60.6716 518.232 63.9264C518.889 64.1607 519.612 63.8176 519.848 63.1692C520.084 62.5166 519.739 61.797 519.082 61.5627C509.669 58.2159 499.617 58.63 489.775 58.3958C489.076 58.379 488.5 58.9271 488.483 59.6174C488.466 60.3118 489.017 60.885 489.711 60.9059Z" fill="white"/>
<path fill-rule="evenodd" clip-rule="evenodd" d="M489 46.996C491.967 44.283 495.203 42.2485 499.116 41.2411C499.789 41.0675 500.193 40.3822 500.021 39.7116C499.844 39.041 499.158 38.6377 498.481 38.8113C494.155 39.9245 490.57 42.1502 487.292 45.1481C486.779 45.6171 486.745 46.4115 487.216 46.9215C487.688 47.4315 488.487 47.465 489 46.996Z" fill="white"/>
<path fill-rule="evenodd" clip-rule="evenodd" d="M480.736 17.0203C482.095 12.3954 484.767 8.77704 488.861 6.16442C489.446 5.79041 489.618 5.0131 489.24 4.43034C488.865 3.84715 488.083 3.67772 487.498 4.05215C482.869 7.00447 479.848 11.0905 478.312 16.317C478.118 16.9818 478.501 17.6792 479.17 17.8733C479.839 18.0674 480.542 17.685 480.736 17.0203Z" fill="white"/>
<path fill-rule="evenodd" clip-rule="evenodd" d="M433.011 10.5887C432.219 11.5233 431.513 12.5273 430.907 13.5942C430.553 14.2095 429.93 15.6428 430.036 16.6808C430.116 17.4585 430.486 18.091 431.226 18.4642C432.409 19.0616 433.356 18.9884 434.084 18.6274C434.782 18.2818 435.337 17.6082 435.682 16.6983C436.297 15.0739 436.225 12.6181 435.914 11.1388C436.756 10.2858 437.677 9.51018 438.657 8.81822C446.198 3.50387 457.26 5.48937 465.773 13.4356C468.756 16.2193 470.174 22.0717 470.919 28.3792C472.093 38.2766 471.424 49.3307 471.331 52.5692C471.31 53.4214 471.403 53.9268 471.445 54.0276C471.681 54.5844 472.101 54.7309 472.392 54.7852C472.8 54.8605 473.124 54.7811 473.389 54.643C473.742 54.4589 474.037 54.136 474.172 53.6331C474.239 53.3762 474.26 53.0194 474.252 52.6383C474.243 52.4128 474.188 52.1668 474.235 52.0053C474.563 50.8703 474.958 49.7612 475.341 48.6451C476.629 44.8903 478.3 41.372 480.147 37.8574C486.034 26.6832 491.714 14.8726 501.363 6.35914C501.884 5.89937 501.935 5.10576 501.472 4.58742C501.009 4.0695 500.21 4.02222 499.688 4.48199C489.808 13.198 483.934 25.2528 477.912 36.6935C476.511 39.3518 475.215 42.0137 474.1 44.7719C474.201 38.5448 474.05 30.1061 472.657 23.1414C471.668 18.1747 470.014 13.9477 467.502 11.6057C458.005 2.74081 445.609 0.841463 437.197 6.77037C436.368 7.35356 435.582 7.99031 434.837 8.67725C430.368 0.918459 421.014 -2.15979 412.737 1.59577C412.106 1.8836 411.824 2.62868 412.114 3.25872C412.405 3.88876 413.154 4.16695 413.785 3.87912C421.081 0.56911 429.345 3.48881 433.011 10.5887ZM433.659 13.9221C433.465 14.2188 433.28 14.5216 433.103 14.8308C432.977 15.0475 432.788 15.4249 432.657 15.8281C432.615 15.9683 432.581 16.1888 432.565 16.3235C432.72 16.3971 432.846 16.4356 432.96 16.38C433.145 16.2875 433.225 16.057 433.318 15.8131C433.524 15.2696 433.629 14.5932 433.659 13.9221Z" fill="white"/>
</svg>
