<svg width="232" height="41" viewBox="0 0 232 41" fill="none" xmlns="http://www.w3.org/2000/svg">
<path d="M9.996 14.996C9.996 13.8025 10.4701 12.6579 11.314 11.814C12.1579 10.9701 13.3025 10.496 14.496 10.496H19.504C20.6672 10.4961 21.7852 10.9467 22.6235 11.7533C23.4617 12.5598 23.955 13.6596 24 14.822V20.176C23.9653 21.0771 23.6608 21.947 23.1259 22.6731C22.591 23.3991 21.8504 23.9478 21 24.248L21.004 14.996C21.004 14.5981 20.846 14.2166 20.5647 13.9353C20.2834 13.654 19.9018 13.496 19.504 13.496H14.496C14.0982 13.496 13.7166 13.654 13.4353 13.9353C13.154 14.2166 12.996 14.5981 12.996 14.996V20.004C12.996 20.658 13.416 21.214 14 21.42V24.476C12.8993 24.3539 11.8822 23.8302 11.1434 23.0051C10.4047 22.18 9.99615 21.1115 9.996 20.004V14.996ZM16 26C16 27.1934 16.4741 28.338 17.318 29.182C18.1619 30.0259 19.3065 30.5 20.5 30.5H25.5C26.6935 30.5 27.8381 30.0259 28.682 29.182C29.5259 28.338 30 27.1934 30 26V21C30 19.8931 29.592 18.8251 28.8541 18.0001C28.1161 17.1751 27.1 16.651 26 16.528V19.586C26.582 19.792 27 20.346 27 21V26C27 26.3978 26.842 26.7793 26.5607 27.0606C26.2794 27.3419 25.8978 27.5 25.5 27.5H20.5C20.1022 27.5 19.7206 27.3419 19.4393 27.0606C19.158 26.7793 19 26.3978 19 26V16.756C18.1224 17.0662 17.3627 17.641 16.8254 18.4011C16.2881 19.1612 15.9997 20.0692 16 21V26Z" fill="white"/>
<path d="M51.192 30.36L46.152 25.344L48.168 23.328L53.184 28.344L51.192 30.36ZM45.096 30.36C43.368 30.36 41.876 29.984 40.62 29.232C39.372 28.48 38.408 27.428 37.728 26.076C37.056 24.724 36.72 23.152 36.72 21.36C36.72 19.568 37.056 17.996 37.728 16.644C38.408 15.292 39.372 14.24 40.62 13.488C41.876 12.736 43.368 12.36 45.096 12.36C46.824 12.36 48.312 12.736 49.56 13.488C50.816 14.24 51.78 15.292 52.452 16.644C53.132 17.996 53.472 19.568 53.472 21.36C53.472 23.152 53.132 24.724 52.452 26.076C51.78 27.428 50.816 28.48 49.56 29.232C48.312 29.984 46.824 30.36 45.096 30.36ZM45.096 27.288C46.192 27.304 47.104 27.068 47.832 26.58C48.56 26.092 49.104 25.4 49.464 24.504C49.832 23.608 50.016 22.56 50.016 21.36C50.016 20.16 49.832 19.12 49.464 18.24C49.104 17.36 48.56 16.676 47.832 16.188C47.104 15.7 46.192 15.448 45.096 15.432C44 15.416 43.088 15.652 42.36 16.14C41.632 16.628 41.084 17.32 40.716 18.216C40.356 19.112 40.176 20.16 40.176 21.36C40.176 22.56 40.356 23.6 40.716 24.48C41.084 25.36 41.632 26.044 42.36 26.532C43.088 27.02 44 27.272 45.096 27.288ZM62.8995 30.36C61.5075 30.36 60.2835 30.08 59.2275 29.52C58.1715 28.952 57.3475 28.156 56.7555 27.132C56.1635 26.108 55.8675 24.904 55.8675 23.52V12.744L59.1795 12.72V23.496C59.1795 24.064 59.2755 24.58 59.4675 25.044C59.6595 25.508 59.9235 25.908 60.2595 26.244C60.6035 26.58 60.9995 26.84 61.4475 27.024C61.9035 27.2 62.3875 27.288 62.8995 27.288C63.4275 27.288 63.9155 27.196 64.3635 27.012C64.8195 26.828 65.2155 26.568 65.5515 26.232C65.8875 25.896 66.1475 25.496 66.3315 25.032C66.5235 24.568 66.6195 24.056 66.6195 23.496V12.72H69.9315V23.52C69.9315 24.904 69.6355 26.108 69.0435 27.132C68.4515 28.156 67.6275 28.952 66.5715 29.52C65.5155 30.08 64.2915 30.36 62.8995 30.36ZM73.5216 30V12.72H76.7856V30H73.5216ZM87.7991 30.36C86.0711 30.36 84.5791 29.984 83.3231 29.232C82.0751 28.48 81.1111 27.428 80.4311 26.076C79.7591 24.724 79.4231 23.152 79.4231 21.36C79.4231 19.568 79.7591 17.996 80.4311 16.644C81.1111 15.292 82.0751 14.24 83.3231 13.488C84.5791 12.736 86.0711 12.36 87.7991 12.36C89.7831 12.36 91.4471 12.852 92.7911 13.836C94.1431 14.82 95.0951 16.152 95.6471 17.832L92.3591 18.744C92.0391 17.696 91.4991 16.884 90.7391 16.308C89.9791 15.724 88.9991 15.432 87.7991 15.432C86.7031 15.432 85.7871 15.676 85.0511 16.164C84.3231 16.652 83.7751 17.34 83.4071 18.228C83.0391 19.116 82.8551 20.16 82.8551 21.36C82.8551 22.56 83.0391 23.604 83.4071 24.492C83.7751 25.38 84.3231 26.068 85.0511 26.556C85.7871 27.044 86.7031 27.288 87.7991 27.288C88.9991 27.288 89.9791 26.996 90.7391 26.412C91.4991 25.828 92.0391 25.016 92.3591 23.976L95.6471 24.888C95.0951 26.568 94.1431 27.9 92.7911 28.884C91.4471 29.868 89.7831 30.36 87.7991 30.36ZM98.2894 30V12.72H101.553V20.688L108.129 12.72H112.113L104.889 21.24L112.569 30H108.441L101.553 22.128V30H98.2894ZM114.49 30V12.72H117.754V26.952H125.194V30H114.49ZM127.475 30V12.72H130.739V30H127.475ZM134.336 30V12.72H137.648L145.16 24.24V12.72H148.472V30H145.16L137.648 18.48V30H134.336ZM151.821 30V12.72H155.085V20.688L161.661 12.72H165.645L158.421 21.24L166.101 30H161.973L155.085 22.128V30H151.821Z" fill="white"/>
</svg>
